<svg width="14" height="14" viewBox="0 0 14 14" fill="none" xmlns="http://www.w3.org/2000/svg">
<g id="eva:close-outline">
<path id="Vector" d="M7.82271 6.99999L10.331 4.49749C10.4409 4.38765 10.5026 4.23867 10.5026 4.08333C10.5026 3.92798 10.4409 3.779 10.331 3.66916C10.2212 3.55932 10.0722 3.49761 9.91688 3.49761C9.76153 3.49761 9.61255 3.55932 9.50271 3.66916L7.00021 6.17749L4.49771 3.66916C4.38786 3.55932 4.23888 3.49761 4.08354 3.49761C3.9282 3.49761 3.77922 3.55932 3.66938 3.66916C3.55953 3.779 3.49782 3.92798 3.49782 4.08333C3.49782 4.23867 3.55953 4.38765 3.66938 4.49749L6.17771 6.99999L3.66938 9.50249C3.6147 9.55672 3.5713 9.62124 3.54169 9.69232C3.51207 9.76341 3.49683 9.83965 3.49683 9.91666C3.49683 9.99367 3.51207 10.0699 3.54169 10.141C3.5713 10.2121 3.6147 10.2766 3.66938 10.3308C3.7236 10.3855 3.78812 10.4289 3.85921 10.4585C3.93029 10.4881 4.00653 10.5034 4.08354 10.5034C4.16055 10.5034 4.23679 10.4881 4.30788 10.4585C4.37896 10.4289 4.44348 10.3855 4.49771 10.3308L7.00021 7.82249L9.50271 10.3308C9.55694 10.3855 9.62145 10.4289 9.69254 10.4585C9.76362 10.4881 9.83987 10.5034 9.91688 10.5034C9.99388 10.5034 10.0701 10.4881 10.1412 10.4585C10.2123 10.4289 10.2768 10.3855 10.331 10.3308C10.3857 10.2766 10.4291 10.2121 10.4587 10.141C10.4883 10.0699 10.5036 9.99367 10.5036 9.91666C10.5036 9.83965 10.4883 9.76341 10.4587 9.69232C10.4291 9.62124 10.3857 9.55672 10.331 9.50249L7.82271 6.99999Z" fill="white"/>
</g>
</svg>
