<svg width="24" height="24" viewBox="0 0 24 24" fill="none" xmlns="http://www.w3.org/2000/svg">
<g id="emoji-sad">
<path id="Color" fill-rule="evenodd" clip-rule="evenodd" d="M8.75 4C6.12665 4 4 6.12665 4 8.75V15.25C4 17.8734 6.12665 20 8.75 20H15.25C17.8734 20 20 17.8734 20 15.25V8.75C20 6.12665 17.8734 4 15.25 4H8.75ZM5.5 8.75C5.5 6.95507 6.95508 5.5 8.75 5.5H15.25C17.0449 5.5 18.5 6.95507 18.5 8.75V15.25C18.5 17.0449 17.0449 18.5 15.25 18.5H8.75C6.95508 18.5 5.5 17.0449 5.5 15.25V8.75ZM7.41457 15.9208C7.78414 16.1056 8.23333 15.9566 8.41942 15.5882L8.42468 15.5783C8.43065 15.5672 8.4413 15.548 8.45671 15.5216C8.48761 15.4689 8.53731 15.3884 8.60659 15.2895C8.74579 15.0906 8.96007 14.8226 9.25449 14.555C9.83837 14.0242 10.7284 13.5 12 13.5C13.2716 13.5 14.1616 14.0242 14.7455 14.555C15.0399 14.8226 15.2542 15.0906 15.3934 15.2895C15.4626 15.3884 15.5124 15.4689 15.5432 15.5216C15.5587 15.548 15.5693 15.5672 15.5753 15.5783L15.5808 15.5886C15.767 15.9568 16.216 16.1055 16.5854 15.9208C16.9559 15.7356 17.106 15.2851 16.9208 14.9146L16.25 15.25C16.9208 14.9146 16.9203 14.9135 16.9201 14.9132L16.9193 14.9116L16.9173 14.9077L16.9119 14.8972L16.9035 14.8811L16.8951 14.8656C16.8813 14.84 16.8622 14.8056 16.8376 14.7635C16.7884 14.6795 16.717 14.5647 16.6222 14.4293C16.4333 14.1594 16.1476 13.8024 15.7545 13.445C14.9634 12.7258 13.7284 12 12 12C10.2716 12 9.0366 12.7258 8.24548 13.445C7.85239 13.8024 7.56667 14.1594 7.37774 14.4293C7.28296 14.5647 7.21158 14.6795 7.16239 14.7635C7.13777 14.8056 7.11863 14.84 7.10482 14.8656C7.09792 14.8783 7.09234 14.8889 7.08807 14.8972L7.08264 14.9077L7.08066 14.9116L7.07985 14.9132L7.07916 14.9146C6.89392 15.2851 7.04409 15.7356 7.41457 15.9208ZM7.07916 14.9146L7.74941 15.2497L7.16283 14.9566C7.08039 14.9154 7.0791 14.9148 7.07916 14.9146L7.07916 14.9146ZM9 10C9 9.44772 9.44772 9 10 9C10.5523 9 11 9.44772 11 10C11 10.5523 10.5523 11 10 11C9.44772 11 9 10.5523 9 10ZM14 9C13.4477 9 13 9.44772 13 10C13 10.5523 13.4477 11 14 11C14.5523 11 15 10.5523 15 10C15 9.44772 14.5523 9 14 9Z" fill="white"/>
</g>
</svg>
